<svg xmlns="http://www.w3.org/2000/svg" width="174.299" height="45.408" viewBox="0 0 174.299 45.408">
  <g id="Nouveau_logo_WA" data-name="Nouveau logo WA" transform="translate(-22.416 -22.365)">
    <g id="Groupe_957" data-name="Groupe 957" transform="translate(40.239 52.924)">
      <path id="Tracé_642" data-name="Tracé 642" d="M336.746,443.518a1.749,1.749,0,0,0,1.081-1.688c0-1.263-.935-1.93-2.7-1.93H332.8v7.783h2.5c1.845,0,2.95-.862,2.95-2.295A1.794,1.794,0,0,0,336.746,443.518Zm-2.865-2.744h1.141c1.226,0,1.76.352,1.76,1.19,0,.8-.607,1.214-1.8,1.214h-1.093v-2.4Zm1.287,6.034h-1.287v-2.792h1.287c1.36,0,2.04.449,2.04,1.336C337.207,446.323,336.515,446.808,335.168,446.808Z" transform="translate(-332.8 -439.766)" fill="#fff"/>
      <path id="Tracé_643" data-name="Tracé 643" d="M424.368,444.064h2.914v-.923h-2.914v-2.319h3.46V439.9H423.3v7.783h4.638v-.923h-3.57Z" transform="translate(-412.312 -439.766)" fill="#fff"/>
      <path id="Tracé_644" data-name="Tracé 644" d="M500.342,442.01h0c-.158.388-.34.765-.522,1.153-.073.158-.146.316-.231.473-.243-.534-.461-1.032-.692-1.554l-1.044-2.283H496.7l2.343,4.759v3.035h1.068v-3.011l2.343-4.759h-1.1Z" transform="translate(-476.801 -439.679)" fill="#fff"/>
      <path id="Tracé_645" data-name="Tracé 645" d="M578.727,438.8c-2.028,0-3.327,1.566-3.327,4.007s1.336,4.055,3.327,4.055,3.327-1.627,3.327-4.055S580.742,438.8,578.727,438.8Zm0,7.1c-1.348,0-2.234-1.214-2.234-3.108,0-1.858.874-3.047,2.234-3.047s2.234,1.2,2.234,3.047C580.949,444.689,580.074,445.9,578.727,445.9Z" transform="translate(-545.945 -438.8)" fill="#fff"/>
      <path id="Tracé_646" data-name="Tracé 646" d="M677.241,443.931c0,.631.049,1.3.085,1.943.012.134.012.255.024.376l-.777-1.493-2.793-4.857H672.7v7.783h1.02v-4.067c0-.619-.049-1.238-.085-1.845-.012-.146-.024-.291-.024-.437l.777,1.493,2.78,4.832.012.024h1.081V439.9h-1.02Z" transform="translate(-631.432 -439.766)" fill="#fff"/>
      <path id="Tracé_647" data-name="Tracé 647" d="M765.667,439.9H763.7v7.783h2.015c2.307,0,3.63-1.433,3.63-3.922S768.034,439.9,765.667,439.9Zm-.073,6.884h-.826V440.8h.826c1.736,0,2.647,1.02,2.647,2.962C768.241,445.74,767.318,446.784,765.594,446.784Z" transform="translate(-711.383 -439.766)" fill="#fff"/>
    </g>
    <g id="Groupe_960" data-name="Groupe 960" transform="translate(22.416 22.365)">
      <g id="Groupe_958" data-name="Groupe 958" transform="translate(83.92)">
        <path id="Tracé_648" data-name="Tracé 648" d="M1098.485,444.965a2.249,2.249,0,0,1-1.748.85c-1.445,0-2.331-1.19-2.331-3.1,0-1.858.935-3.06,2.368-3.06a2.1,2.1,0,0,1,1.53.7l.036.036.595-.7-.024-.036a2.927,2.927,0,0,0-2.149-.959c-2.064,0-3.46,1.627-3.46,4.043s1.36,4.019,3.4,4.019a2.993,2.993,0,0,0,2.392-1.129l.024-.036-.595-.68Z" transform="translate(-1067.063 -408.153)" fill="#fff"/>
        <path id="Tracé_649" data-name="Tracé 649" d="M1181.627,438.8c-2.028,0-3.327,1.566-3.327,4.007s1.335,4.055,3.327,4.055,3.327-1.627,3.327-4.055S1183.654,438.8,1181.627,438.8Zm0,7.1c-1.348,0-2.222-1.214-2.222-3.108,0-1.858.874-3.047,2.222-3.047s2.234,1.2,2.234,3.047C1183.861,444.689,1182.986,445.9,1181.627,445.9Z" transform="translate(-1141.743 -408.24)" fill="#fff"/>
        <path id="Tracé_650" data-name="Tracé 650" d="M1275.567,439.9H1273.6v7.783h2.015c2.307,0,3.63-1.433,3.63-3.922S1277.934,439.9,1275.567,439.9Zm-.073,6.884h-.826V440.8h.826c1.736,0,2.647,1.02,2.647,2.962C1278.141,445.74,1277.23,446.784,1275.494,446.784Z" transform="translate(-1225.472 -409.207)" fill="#fff"/>
        <rect id="Rectangle_436" data-name="Rectangle 436" width="1.068" height="7.783" transform="translate(58.679 30.693)" fill="#fff"/>
        <path id="Tracé_651" data-name="Tracé 651" d="M1417.941,443.931c0,.631.049,1.3.085,1.943.012.134.012.255.024.376l-.777-1.493-2.792-4.857h-1.08v7.783h1.02v-4.067c0-.619-.049-1.238-.085-1.845-.012-.146-.024-.291-.024-.437l.777,1.493,2.78,4.832.012.024h1.081V439.9h-1.02Z" transform="translate(-1348.299 -409.207)" fill="#fff"/>
        <path id="Tracé_652" data-name="Tracé 652" d="M1501.1,443.547h1.627v1.93a2.045,2.045,0,0,1-1.336.425c-1.566,0-2.5-1.153-2.5-3.1,0-1.882.959-3.06,2.5-3.06a2.083,2.083,0,0,1,1.615.716l.036.036.595-.7-.024-.036a3,3,0,0,0-2.246-.959c-2.137,0-3.57,1.627-3.57,4.043,0,2.44,1.384,4.019,3.521,4.019a3.308,3.308,0,0,0,2.4-.911l.012-.012v-3.29H1501.1Z" transform="translate(-1422.452 -408.24)" fill="#fff"/>
        <path id="Tracé_653" data-name="Tracé 653" d="M1047.3,192.558h6.35V211.3h2.671V192.558h6.35V190.3H1047.3Z" transform="translate(-1026.648 -189.911)" fill="#fff"/>
        <path id="Tracé_654" data-name="Tracé 654" d="M1231.9,202.038a5.707,5.707,0,0,0,4.723-5.925c0-4.371-3.072-5.913-7.345-5.913H1222.7v21h2.671v-8.875h3.8l5.051,8.875h3.035Zm-3.011-1.87h-3.521v-7.795h3.521c3.266,0,5.063.983,5.063,3.739C1233.955,198.845,1232.158,200.168,1228.892,200.168Z" transform="translate(-1180.752 -189.824)" fill="#fff"/>
        <rect id="Rectangle_437" data-name="Rectangle 437" width="2.671" height="21.004" transform="translate(63.438 0.389)" fill="#fff"/>
        <path id="Tracé_655" data-name="Tracé 655" d="M1488.032,187.1c-5.075,0-8.632,4.079-8.632,10.806s3.557,10.964,8.632,10.964,8.632-4.237,8.632-10.964C1496.665,191.2,1493.1,187.1,1488.032,187.1Zm0,19.426c-3.606,0-5.973-3.375-5.973-8.608s2.368-8.462,5.973-8.462,5.974,3.23,5.974,8.462S1491.638,206.526,1488.032,206.526Z" transform="translate(-1406.286 -187.1)" fill="#fff"/>
        <path id="Tracé_656" data-name="Tracé 656" d="M887.933,189.4h-3.351L877.2,210.574h2.9l2.088-6.423h8.293l2.052,6.423h3.035Zm-5.039,12.554,1.032-3.193c.741-2.355,1.542-4.674,2.222-7.127h.376c.643,2.453,1.481,4.772,2.222,7.127l1.02,3.193Z" transform="translate(-877.2 -189.121)" fill="#fff"/>
      </g>
      <g id="Groupe_959" data-name="Groupe 959" transform="translate(0 0.401)">
        <path id="Tracé_657" data-name="Tracé 657" d="M205.183,201.752c-.413,2.222-.8,4.468-1.214,6.726h-.121c-.51-2.258-1.032-4.517-1.542-6.726L199.343,190.4h-2.465l-2.962,11.352c-.51,2.234-1.032,4.48-1.493,6.726h-.134c-.413-2.246-.838-4.48-1.251-6.726L188.8,190.4H186l4.529,20.859h3.217l3.169-12.53c.364-1.627.741-3.145,1.068-4.747h.134c.316,1.6.656,3.12,1.032,4.747l3.23,12.53h3.266l4.419-20.859h-2.623Z" transform="translate(-186 -190.4)" fill="#fff"/>
        <path id="Tracé_658" data-name="Tracé 658" d="M442.517,201.424h8.414v-2.246h-8.414v-6.532h9.968V190.4H439.7v20.859h13.125v-2.246H442.517Z" transform="translate(-408.898 -190.4)" fill="#fff"/>
        <path id="Tracé_659" data-name="Tracé 659" d="M614.72,200.162v-.121a4.555,4.555,0,0,0,3.047-4.529c0-3.667-2.938-5.111-7.175-5.111H604.4v20.859h6.666c4.65,0,7.892-2,7.892-6.095A4.819,4.819,0,0,0,614.72,200.162Zm-7.661-7.661h3.205c3.23,0,4.893.911,4.893,3.351,0,2.113-1.469,3.424-5.014,3.424h-3.084Zm3.63,16.646h-3.63V201.3h3.63c3.642,0,5.67,1.178,5.67,3.739C616.359,207.859,614.259,209.146,610.689,209.146Z" transform="translate(-553.601 -190.4)" fill="#fff"/>
        <rect id="Rectangle_438" data-name="Rectangle 438" width="6.799" height="2.064" transform="translate(72.119 10.102)" fill="#fff"/>
      </g>
    </g>
    <g id="Groupe_961" data-name="Groupe 961" transform="translate(104.225 49.451)">
      <path id="Tracé_660" data-name="Tracé 660" d="M859.821,416.836a6.749,6.749,0,0,1,6.617-6.641,4.411,4.411,0,0,1,2.829.741c.073.146-.34.813-2.562,2.95-2.137,2.04-5.1,3.934-6.52,3.982C859.712,417.892,859.821,417.37,859.821,416.836Z" transform="translate(-859.81 -410.194)" fill="#f6c904"/>
      <path id="Tracé_661" data-name="Tracé 661" d="M867.206,421a2.722,2.722,0,0,1,.874-.049,6.693,6.693,0,0,0,3.3-1.19c1.153-.716,2.683-2.125,5.791-5.379,2.125-2.234,3.9-3.084,5.816-3.084a4.706,4.706,0,0,1,4.3,2.744c.109.206.073.243-.109.291a6.842,6.842,0,0,0-1.955.595,13.069,13.069,0,0,0-3.849,3.011,54.689,54.689,0,0,1-4.079,4.043,10.515,10.515,0,0,1-6.01,2.246c-1.615,0-3-1.226-4.079-3.011C867.1,421.086,867.182,421.025,867.206,421Z" transform="translate(-866.26 -411.166)" fill="#e2151b"/>
      <path id="Tracé_662" data-name="Tracé 662" d="M918.118,453.673a2.89,2.89,0,0,1,.474,1.858c0,1.8-1.056,4.007-3.484,6.666-1.991,2.185-5.257,4.456-7.916,4.456a6.923,6.923,0,0,1-3.837-1.336,10.9,10.9,0,0,1-2.295-1.979c-.085-.134-.061-.279.121-.255a14.664,14.664,0,0,0,1.773.206,7.739,7.739,0,0,0,4.152-1.153c2.1-1.323,3.812-2.9,7.418-6.811a4.368,4.368,0,0,1,3.205-1.724A.872.872,0,0,1,918.118,453.673Z" transform="translate(-896.01 -448.33)" fill="#2374cf"/>
    </g>
  </g>
</svg>
